# xmcd
#
# Track frame offsets:
#	150
#	13838
#	30697
#	48372
#	64286
#	79424
#	95369
#	114530
#	128488
#	148947
#
# Disc length: 2200 seconds
#
# Revision: 0
# Processed by: cddbd v1.5.2PL0 Copyright (c) Steve Scherf et al.
# Submitted via: EasyCDDAExtractor 10.2.0.1
#
DISCID=8908960a
DTITLE=Various Artist - HMG Christian Country Vol. 85
DYEAR=2004
DGENRE=Gospel
TTITLE0=Buddy Jewell - One Step At A Time
TTITLE1=Young Harmony - Can The World See Jesus In You
TTITLE2=John Conlee - From Your Knees
TTITLE3=Curt Collins - Backyard Hero
TTITLE4=Mike Hammock - Can't Take It With You
TTITLE5=Chunky Nelms - A Servant's Heart
TTITLE6=Jorie Raine Pless - Old Guitar
TTITLE7=Kathy Bell - Standing In The Glory
TTITLE8=1963/Philadelpheia - No Greater Love
TTITLE9=Hearts Of Grace - God Made A Promise
EXTD=
EXTT0=
EXTT1=
EXTT2=
EXTT3=
EXTT4=
EXTT5=
EXTT6=
EXTT7=
EXTT8=
EXTT9=
PLAYORDER=
